<svg width="5565" height="4542" xmlns="http://www.w3.org/2000/svg" xmlns:xlink="http://www.w3.org/1999/xlink" xml:space="preserve" overflow="hidden"><defs><clipPath id="clip0"><rect x="193" y="205" width="5565" height="4542"/></clipPath></defs><g clip-path="url(#clip0)" transform="translate(-193 -205)"><path d="M580.5 205.5 580.5 4734.47" stroke="#000000" stroke-width="20.625" stroke-miterlimit="8" fill="none" fill-rule="evenodd"/><path d="M193.5 586.5 5746.6 586.5" stroke="#000000" stroke-width="20.625" stroke-miterlimit="8" fill="none" fill-rule="evenodd"/><path d="M193 2655 5746.1 2655" stroke="#000000" stroke-width="13.75" stroke-linecap="square" stroke-miterlimit="8" stroke-dasharray="41.25 13.75" fill="none" fill-rule="evenodd"/><path d="M3167 211 3167 4739.97" stroke="#000000" stroke-width="13.75" stroke-linecap="square" stroke-miterlimit="8" stroke-dasharray="41.25 13.75" fill="none" fill-rule="evenodd"/><text font-family="Gill Sans MT,Gill Sans MT_MSFontService,sans-serif" font-weight="700" font-size="165" transform="matrix(1 0 0 1 1465.19 474)">LATENCY</text><text font-family="Gill Sans MT,Gill Sans MT_MSFontService,sans-serif" font-weight="700" font-size="165" transform="matrix(1 0 0 1 3820.84 474)">THROUGHPUT</text><text font-family="Gill Sans MT,Gill Sans MT_MSFontService,sans-serif" font-weight="700" font-size="165" transform="matrix(-1.83697e-16 -1 1 -1.83697e-16 445.764 2184)">RDMA WRITE</text><text font-family="Gill Sans MT,Gill Sans MT_MSFontService,sans-serif" font-weight="700" font-size="165" transform="matrix(-1.83697e-16 -1 1 -1.83697e-16 445.764 4211)">RDMA READ</text><path d="M679.5 827.668C679.5 793.334 707.334 765.5 741.668 765.5L1042.33 765.5C1076.67 765.5 1104.5 793.334 1104.5 827.668L1104.5 1076.33C1104.5 1110.67 1076.67 1138.5 1042.33 1138.5L741.668 1138.5C707.334 1138.5 679.5 1110.67 679.5 1076.33Z" stroke="#042433" stroke-width="6.875" stroke-miterlimit="8" fill="#00B0F0" fill-rule="evenodd"/><text fill="#FFFFFF" font-family="Gill Sans MT,Gill Sans MT_MSFontService,sans-serif" font-weight="700" font-size="128" transform="matrix(1 0 0 1 747.192 998)">CPU</text><path d="M679.5 1510.17C679.5 1471.14 711.139 1439.5 750.168 1439.5L1032.83 1439.5C1071.86 1439.5 1103.5 1471.14 1103.5 1510.17L1103.5 2408.83C1103.5 2447.86 1071.86 2479.5 1032.83 2479.5L750.168 2479.5C711.139 2479.5 679.5 2447.86 679.5 2408.83Z" stroke="#042433" stroke-width="6.875" stroke-miterlimit="8" fill="#E97132" fill-rule="evenodd"/><text fill="#FFFFFF" font-family="Gill Sans MT,Gill Sans MT_MSFontService,sans-serif" font-weight="700" font-size="147" transform="matrix(6.12323e-17 -1 1 6.12323e-17 944.391 2169)">FPGA</text><path d="M0 0 0.181529 301.292" stroke="#000000" stroke-width="6.875" stroke-miterlimit="8" fill="none" fill-rule="evenodd" transform="matrix(1 0 0 -1 891.5 1439.79)"/><path d="M2653.5 823.668C2653.5 789.333 2681.33 761.5 2715.67 761.5L3017.33 761.5C3051.67 761.5 3079.5 789.333 3079.5 823.668L3079.5 1072.33C3079.5 1106.67 3051.67 1134.5 3017.33 1134.5L2715.67 1134.5C2681.33 1134.5 2653.5 1106.67 2653.5 1072.33Z" stroke="#042433" stroke-width="6.875" stroke-miterlimit="8" fill="#00B0F0" fill-rule="evenodd"/><text fill="#FFFFFF" font-family="Gill Sans MT,Gill Sans MT_MSFontService,sans-serif" font-weight="700" font-size="128" transform="matrix(1 0 0 1 2721.82 994)">CPU</text><path d="M2654.5 1506.17C2654.5 1467.14 2686.14 1435.5 2725.17 1435.5L3007.83 1435.5C3046.86 1435.5 3078.5 1467.14 3078.5 1506.17L3078.5 2404.83C3078.5 2443.86 3046.86 2475.5 3007.83 2475.5L2725.17 2475.5C2686.14 2475.5 2654.5 2443.86 2654.5 2404.83Z" stroke="#042433" stroke-width="6.875" stroke-miterlimit="8" fill="#E97132" fill-rule="evenodd"/><text fill="#FFFFFF" font-family="Gill Sans MT,Gill Sans MT_MSFontService,sans-serif" font-weight="700" font-size="147" transform="matrix(6.12323e-17 -1 1 6.12323e-17 2919.02 2164)">FPGA</text><path d="M0 0 0.181529 301.292" stroke="#000000" stroke-width="6.875" stroke-miterlimit="8" fill="none" fill-rule="evenodd" transform="matrix(1 0 0 -1 2866.5 1435.79)"/><path d="M3266.5 827.668C3266.5 793.334 3294.33 765.5 3328.67 765.5L3629.33 765.5C3663.67 765.5 3691.5 793.334 3691.5 827.668L3691.5 1076.33C3691.5 1110.67 3663.67 1138.5 3629.33 1138.5L3328.67 1138.5C3294.33 1138.5 3266.5 1110.67 3266.5 1076.33Z" stroke="#042433" stroke-width="6.875" stroke-miterlimit="8" fill="#00B0F0" fill-rule="evenodd"/><text fill="#FFFFFF" font-family="Gill Sans MT,Gill Sans MT_MSFontService,sans-serif" font-weight="700" font-size="128" transform="matrix(1 0 0 1 3334.09 998)">CPU</text><path d="M3266.5 1510.17C3266.5 1471.14 3298.14 1439.5 3337.17 1439.5L3619.83 1439.5C3658.86 1439.5 3690.5 1471.14 3690.5 1510.17L3690.5 2408.83C3690.5 2447.86 3658.86 2479.5 3619.83 2479.5L3337.17 2479.5C3298.14 2479.5 3266.5 2447.86 3266.5 2408.83Z" stroke="#042433" stroke-width="6.875" stroke-miterlimit="8" fill="#E97132" fill-rule="evenodd"/><text fill="#FFFFFF" font-family="Gill Sans MT,Gill Sans MT_MSFontService,sans-serif" font-weight="700" font-size="147" transform="matrix(6.12323e-17 -1 1 6.12323e-17 3531.29 2169)">FPGA</text><path d="M0 0 0.181529 301.292" stroke="#000000" stroke-width="6.875" stroke-miterlimit="8" fill="none" fill-rule="evenodd" transform="matrix(1 0 0 -1 3478.5 1439.79)"/><path d="M5240.5 823.668C5240.5 789.333 5268.33 761.5 5302.67 761.5L5604.33 761.5C5638.67 761.5 5666.5 789.333 5666.5 823.668L5666.5 1072.33C5666.5 1106.67 5638.67 1134.5 5604.33 1134.5L5302.67 1134.5C5268.33 1134.5 5240.5 1106.67 5240.5 1072.33Z" stroke="#042433" stroke-width="6.875" stroke-miterlimit="8" fill="#00B0F0" fill-rule="evenodd"/><text fill="#FFFFFF" font-family="Gill Sans MT,Gill Sans MT_MSFontService,sans-serif" font-weight="700" font-size="128" transform="matrix(1 0 0 1 5308.71 994)">CPU</text><path d="M5241.5 1506.17C5241.5 1467.14 5273.14 1435.5 5312.17 1435.5L5594.83 1435.5C5633.86 1435.5 5665.5 1467.14 5665.5 1506.17L5665.5 2404.83C5665.5 2443.86 5633.86 2475.5 5594.83 2475.5L5312.17 2475.5C5273.14 2475.5 5241.5 2443.86 5241.5 2404.83Z" stroke="#042433" stroke-width="6.875" stroke-miterlimit="8" fill="#E97132" fill-rule="evenodd"/><text fill="#FFFFFF" font-family="Gill Sans MT,Gill Sans MT_MSFontService,sans-serif" font-weight="700" font-size="147" transform="matrix(6.12323e-17 -1 1 6.12323e-17 5505.91 2164)">FPGA</text><path d="M0 0 0.181529 301.292" stroke="#000000" stroke-width="6.875" stroke-miterlimit="8" fill="none" fill-rule="evenodd" transform="matrix(1 0 0 -1 5453.5 1435.79)"/><path d="M678.5 2896.67C678.5 2862.33 706.334 2834.5 740.668 2834.5L1041.33 2834.5C1075.67 2834.5 1103.5 2862.33 1103.5 2896.67L1103.5 3145.33C1103.5 3179.67 1075.67 3207.5 1041.33 3207.5L740.668 3207.5C706.334 3207.5 678.5 3179.67 678.5 3145.33Z" stroke="#042433" stroke-width="6.875" stroke-miterlimit="8" fill="#00B0F0" fill-rule="evenodd"/><text fill="#FFFFFF" font-family="Gill Sans MT,Gill Sans MT_MSFontService,sans-serif" font-weight="700" font-size="128" transform="matrix(1 0 0 1 746.046 3067)">CPU</text><path d="M678.5 3579.17C678.5 3540.14 710.139 3508.5 749.168 3508.5L1031.83 3508.5C1070.86 3508.5 1102.5 3540.14 1102.5 3579.17L1102.5 4477.83C1102.5 4516.86 1070.86 4548.5 1031.83 4548.5L749.168 4548.5C710.139 4548.5 678.5 4516.86 678.5 4477.83Z" stroke="#042433" stroke-width="6.875" stroke-miterlimit="8" fill="#E97132" fill-rule="evenodd"/><text fill="#FFFFFF" font-family="Gill Sans MT,Gill Sans MT_MSFontService,sans-serif" font-weight="700" font-size="147" transform="matrix(6.12323e-17 -1 1 6.12323e-17 943.246 4238)">FPGA</text><path d="M0 0 0.181529 301.292" stroke="#000000" stroke-width="6.875" stroke-miterlimit="8" fill="none" fill-rule="evenodd" transform="matrix(1 0 0 -1 890.5 3508.79)"/><path d="M2652.5 2892.67C2652.5 2858.33 2680.33 2830.5 2714.67 2830.5L3016.33 2830.5C3050.67 2830.5 3078.5 2858.33 3078.5 2892.67L3078.5 3141.33C3078.5 3175.67 3050.67 3203.5 3016.33 3203.5L2714.67 3203.5C2680.33 3203.5 2652.5 3175.67 2652.5 3141.33Z" stroke="#042433" stroke-width="6.875" stroke-miterlimit="8" fill="#00B0F0" fill-rule="evenodd"/><text fill="#FFFFFF" font-family="Gill Sans MT,Gill Sans MT_MSFontService,sans-serif" font-weight="700" font-size="128" transform="matrix(1 0 0 1 2720.67 3063)">CPU</text><path d="M2653.5 3575.17C2653.5 3536.14 2685.14 3504.5 2724.17 3504.5L3006.83 3504.5C3045.86 3504.5 3077.5 3536.14 3077.5 3575.17L3077.5 4473.83C3077.5 4512.86 3045.86 4544.5 3006.83 4544.5L2724.17 4544.5C2685.14 4544.5 2653.5 4512.86 2653.5 4473.83Z" stroke="#042433" stroke-width="6.875" stroke-miterlimit="8" fill="#E97132" fill-rule="evenodd"/><text fill="#FFFFFF" font-family="Gill Sans MT,Gill Sans MT_MSFontService,sans-serif" font-weight="700" font-size="147" transform="matrix(6.12323e-17 -1 1 6.12323e-17 2917.87 4234)">FPGA</text><path d="M0 0 0.181529 301.292" stroke="#000000" stroke-width="6.875" stroke-miterlimit="8" fill="none" fill-rule="evenodd" transform="matrix(1 0 0 -1 2865.5 3504.79)"/><path d="M3264.5 2896.67C3264.5 2862.33 3292.33 2834.5 3326.67 2834.5L3628.33 2834.5C3662.67 2834.5 3690.5 2862.33 3690.5 2896.67L3690.5 3145.33C3690.5 3179.67 3662.67 3207.5 3628.33 3207.5L3326.67 3207.5C3292.33 3207.5 3264.5 3179.67 3264.5 3145.33Z" stroke="#042433" stroke-width="6.875" stroke-miterlimit="8" fill="#00B0F0" fill-rule="evenodd"/><text fill="#FFFFFF" font-family="Gill Sans MT,Gill Sans MT_MSFontService,sans-serif" font-weight="700" font-size="128" transform="matrix(1 0 0 1 3332.94 3067)">CPU</text><path d="M3265.5 3579.17C3265.5 3540.14 3297.14 3508.5 3336.17 3508.5L3618.83 3508.5C3657.86 3508.5 3689.5 3540.14 3689.5 3579.17L3689.5 4477.83C3689.5 4516.86 3657.86 4548.5 3618.83 4548.5L3336.17 4548.5C3297.14 4548.5 3265.5 4516.86 3265.5 4477.83Z" stroke="#042433" stroke-width="6.875" stroke-miterlimit="8" fill="#E97132" fill-rule="evenodd"/><text fill="#FFFFFF" font-family="Gill Sans MT,Gill Sans MT_MSFontService,sans-serif" font-weight="700" font-size="147" transform="matrix(6.12323e-17 -1 1 6.12323e-17 3530.14 4238)">FPGA</text><path d="M0 0 0.181529 301.292" stroke="#000000" stroke-width="6.875" stroke-miterlimit="8" fill="none" fill-rule="evenodd" transform="matrix(1 0 0 -1 3477.5 3508.79)"/><path d="M5239.5 2892.67C5239.5 2858.33 5267.33 2830.5 5301.67 2830.5L5603.33 2830.5C5637.67 2830.5 5665.5 2858.33 5665.5 2892.67L5665.5 3141.33C5665.5 3175.67 5637.67 3203.5 5603.33 3203.5L5301.67 3203.5C5267.33 3203.5 5239.5 3175.67 5239.5 3141.33Z" stroke="#042433" stroke-width="6.875" stroke-miterlimit="8" fill="#00B0F0" fill-rule="evenodd"/><text fill="#FFFFFF" font-family="Gill Sans MT,Gill Sans MT_MSFontService,sans-serif" font-weight="700" font-size="128" transform="matrix(1 0 0 1 5307.57 3063)">CPU</text><path d="M5240.5 3575.17C5240.5 3536.14 5272.14 3504.5 5311.17 3504.5L5593.83 3504.5C5632.86 3504.5 5664.5 3536.14 5664.5 3575.17L5664.5 4473.83C5664.5 4512.86 5632.86 4544.5 5593.83 4544.5L5311.17 4544.5C5272.14 4544.5 5240.5 4512.86 5240.5 4473.83Z" stroke="#042433" stroke-width="6.875" stroke-miterlimit="8" fill="#E97132" fill-rule="evenodd"/><text fill="#FFFFFF" font-family="Gill Sans MT,Gill Sans MT_MSFontService,sans-serif" font-weight="700" font-size="147" transform="matrix(6.12323e-17 -1 1 6.12323e-17 5504.77 4234)">FPGA</text><path d="M0 0 0.181529 301.292" stroke="#000000" stroke-width="6.875" stroke-miterlimit="8" fill="none" fill-rule="evenodd" transform="matrix(1 0 0 -1 5452.5 3504.79)"/><rect x="1546.5" y="1475.5" width="665" height="112" stroke="#042433" stroke-width="6.875" stroke-miterlimit="8" fill="#92D050"/><text fill="#FFFFFF" font-family="Gill Sans MT,Gill Sans MT_MSFontService,sans-serif" font-weight="400" font-size="83" transform="matrix(1 0 0 1 1633.2 1560)">RDMA WRITE</text><rect x="1546.5" y="1690.5" width="665" height="112" stroke="#042433" stroke-width="6.875" stroke-miterlimit="8" fill="#FFC000"/><text fill="#FFFFFF" font-family="Gill Sans MT,Gill Sans MT_MSFontService,sans-serif" font-weight="400" font-size="83" transform="matrix(1 0 0 1 1796.7 1775)">ACK</text><rect x="1546.5" y="1843.5" width="665" height="112" stroke="#042433" stroke-width="6.875" stroke-miterlimit="8" fill="#92D050"/><text fill="#FFFFFF" font-family="Gill Sans MT,Gill Sans MT_MSFontService,sans-serif" font-weight="400" font-size="83" transform="matrix(1 0 0 1 1633.2 1928)">RDMA WRITE</text><path d="M1108.5 1528.06 1523.64 1528.06 1523.64 1534.94 1108.5 1534.94ZM1519.06 1517.75 1546.56 1531.5 1519.06 1545.25Z"/><path d="M2211.5 1528.06 2629.84 1528.06 2629.84 1534.94 2211.5 1534.94ZM2625.26 1517.75 2652.76 1531.5 2625.26 1545.25Z"/><path d="M2.81141e-06-3.4375 418.345-3.43716 418.345 3.43784-2.81141e-06 3.4375ZM413.762-13.7497 441.262 0.000360892 413.762 13.7503Z" transform="matrix(-1 0 0 1 2652.76 1746.5)"/><path d="M2.83199e-06-3.4375 415.139-3.43716 415.139 3.43784-2.83199e-06 3.4375ZM410.556-13.7497 438.056 0.000360892 410.556 13.7503Z" transform="matrix(-1 0 0 1 1546.56 1746.5)"/><path d="M2.81141e-06-3.4375 418.345-3.43716 418.345 3.43784-2.81141e-06 3.4375ZM413.762-13.7497 441.262 0.000360892 413.762 13.7503Z" transform="matrix(-1 0 0 1 2652.76 1899.5)"/><path d="M2.80643e-06-3.4375 419.127-3.43716 419.127 3.43784-2.80643e-06 3.4375ZM414.544-13.7497 442.044 0.000360892 414.544 13.7503Z" transform="matrix(-1 0 0 1 1546.54 1899.5)"/><rect x="1546.5" y="2057.5" width="665" height="113" stroke="#042433" stroke-width="6.875" stroke-miterlimit="8" fill="#FFC000"/><text fill="#FFFFFF" font-family="Gill Sans MT,Gill Sans MT_MSFontService,sans-serif" font-weight="400" font-size="83" transform="matrix(1 0 0 1 1796.7 2143)">ACK</text><rect x="1546.5" y="2211.5" width="665" height="112" stroke="#042433" stroke-width="6.875" stroke-miterlimit="8" fill="#92D050"/><text fill="#FFFFFF" font-family="Gill Sans MT,Gill Sans MT_MSFontService,sans-serif" font-weight="400" font-size="83" transform="matrix(1 0 0 1 1633.2 2296)">RDMA WRITE</text><path d="M2211.5 2111.06 2629.84 2111.06 2629.84 2117.94 2211.5 2117.94ZM2625.26 2100.75 2652.76 2114.5 2625.26 2128.25Z"/><path d="M1108.5 2111.06 1523.64 2111.06 1523.64 2117.94 1108.5 2117.94ZM1519.06 2100.75 1546.56 2114.5 1519.06 2128.25Z"/><path d="M2211.5 2264.06 2629.84 2264.06 2629.84 2270.94 2211.5 2270.94ZM2625.26 2253.75 2652.76 2267.5 2625.26 2281.25Z"/><path d="M1104.5 2264.06 1523.63 2264.06 1523.63 2270.94 1104.5 2270.94ZM1519.04 2253.75 1546.54 2267.5 1519.04 2281.25Z"/><text font-family="Gill Sans MT,Gill Sans MT_MSFontService,sans-serif" font-weight="700" font-size="128" transform="matrix(1 0 0 1 1809.63 2426)">…</text><rect x="4134.5" y="1473.5" width="664" height="113" stroke="#042433" stroke-width="6.875" stroke-miterlimit="8" fill="#92D050"/><text fill="#FFFFFF" font-family="Gill Sans MT,Gill Sans MT_MSFontService,sans-serif" font-weight="400" font-size="83" transform="matrix(1 0 0 1 4220.26 1559)">RDMA WRITE</text><rect x="4134.5" y="1626.5" width="664" height="113" stroke="#042433" stroke-width="6.875" stroke-miterlimit="8" fill="#92D050"/><text fill="#FFFFFF" font-family="Gill Sans MT,Gill Sans MT_MSFontService,sans-serif" font-weight="400" font-size="83" transform="matrix(1 0 0 1 4220.26 1712)">RDMA WRITE</text><path d="M4798.5 1526.06 5216.85 1526.06 5216.85 1532.94 4798.5 1532.94ZM5212.26 1515.75 5239.76 1529.5 5212.26 1543.25Z"/><path d="M3695.5 1526.06 4110.64 1526.06 4110.64 1532.94 3695.5 1532.94ZM4106.06 1515.75 4133.56 1529.5 4106.06 1543.25Z"/><path d="M4798.5 1679.06 5216.85 1679.06 5216.85 1685.94 4798.5 1685.94ZM5212.26 1668.75 5239.76 1682.5 5212.26 1696.25Z"/><path d="M3692.5 1679.06 4111.63 1679.06 4111.63 1685.94 3692.5 1685.94ZM4107.04 1668.75 4134.54 1682.5 4107.04 1696.25Z"/><rect x="4135.5" y="1836.5" width="664" height="113" stroke="#042433" stroke-width="6.875" stroke-miterlimit="8" fill="#FFC000"/><text fill="#FFFFFF" font-family="Gill Sans MT,Gill Sans MT_MSFontService,sans-serif" font-weight="400" font-size="83" transform="matrix(1 0 0 1 4385.1 1922)">ACK</text><rect x="4135.5" y="1989.5" width="664" height="113" stroke="#042433" stroke-width="6.875" stroke-miterlimit="8" fill="#FFC000"/><text fill="#FFFFFF" font-family="Gill Sans MT,Gill Sans MT_MSFontService,sans-serif" font-weight="400" font-size="83" transform="matrix(1 0 0 1 4385.1 2075)">ACK</text><path d="M2.81141e-06-3.4375 418.345-3.43716 418.345 3.43784-2.81141e-06 3.4375ZM413.762-13.7497 441.262 0.000360892 413.762 13.7503Z" transform="matrix(-1 0 0 1 5240.76 1892.5)"/><path d="M2.83199e-06-3.4375 415.139-3.43716 415.139 3.43784-2.83199e-06 3.4375ZM410.556-13.7497 438.056 0.000360892 410.556 13.7503Z" transform="matrix(-1 0 0 1 4135.56 1892.5)"/><path d="M2.81141e-06-3.4375 418.345-3.43716 418.345 3.43784-2.81141e-06 3.4375ZM413.762-13.7497 441.262 0.000360892 413.762 13.7503Z" transform="matrix(-1 0 0 1 5240.76 2046.5)"/><path d="M2.80643e-06-3.4375 419.127-3.43716 419.127 3.43784-2.80643e-06 3.4375ZM414.544-13.7497 442.044 0.000360892 414.544 13.7503Z" transform="matrix(-1 0 0 1 4135.54 2046.5)"/><rect x="4135.5" y="2142.5" width="664" height="113" stroke="#042433" stroke-width="6.875" stroke-miterlimit="8" fill="#92D050"/><text fill="#FFFFFF" font-family="Gill Sans MT,Gill Sans MT_MSFontService,sans-serif" font-weight="400" font-size="83" transform="matrix(1 0 0 1 4221.6 2228)">RDMA WRITE</text><rect x="4135.5" y="2295.5" width="664" height="113" stroke="#042433" stroke-width="6.875" stroke-miterlimit="8" fill="#92D050"/><text fill="#FFFFFF" font-family="Gill Sans MT,Gill Sans MT_MSFontService,sans-serif" font-weight="400" font-size="83" transform="matrix(1 0 0 1 4221.6 2381)">RDMA WRITE</text><path d="M2.81141e-06-3.4375 418.345-3.43716 418.345 3.43784-2.81141e-06 3.4375ZM413.762-13.7497 441.262 0.000360892 413.762 13.7503Z" transform="matrix(-1 0 0 1 5240.76 2198.5)"/><path d="M2.83199e-06-3.4375 415.139-3.43716 415.139 3.43784-2.83199e-06 3.4375ZM410.556-13.7497 438.056 0.000360892 410.556 13.7503Z" transform="matrix(-1 0 0 1 4135.56 2198.5)"/><path d="M2.81141e-06-3.4375 418.345-3.43716 418.345 3.43784-2.81141e-06 3.4375ZM413.762-13.7497 441.262 0.000360892 413.762 13.7503Z" transform="matrix(-1 0 0 1 5240.76 2351.5)"/><path d="M2.80643e-06-3.4375 419.127-3.43716 419.127 3.43784-2.80643e-06 3.4375ZM414.544-13.7497 442.044 0.000360892 414.544 13.7503Z" transform="matrix(-1 0 0 1 4135.54 2351.5)"/><text font-family="Gill Sans MT,Gill Sans MT_MSFontService,sans-serif" font-weight="700" font-size="128" transform="matrix(1 0 0 1 4407.97 2526)">…</text><rect x="1546.5" y="3572.5" width="665" height="112" stroke="#042433" stroke-width="6.875" stroke-miterlimit="8" fill="#92D050"/><text fill="#FFFFFF" font-family="Gill Sans MT,Gill Sans MT_MSFontService,sans-serif" font-weight="400" font-size="83" transform="matrix(1 0 0 1 1589.95 3658)">READ REQUEST</text><rect x="1546.5" y="3787.5" width="665" height="112" stroke="#042433" stroke-width="6.875" stroke-miterlimit="8" fill="#FFC000"/><text fill="#FFFFFF" font-family="Gill Sans MT,Gill Sans MT_MSFontService,sans-serif" font-weight="400" font-size="73" transform="matrix(1 0 0 1 1606.28 3869)">READ RESPONSE</text><path d="M1108.5 3625.06 1523.64 3625.06 1523.64 3631.94 1108.5 3631.94ZM1519.06 3614.75 1546.56 3628.5 1519.06 3642.25Z"/><path d="M2211.5 3625.06 2629.84 3625.06 2629.84 3631.94 2211.5 3631.94ZM2625.26 3614.75 2652.76 3628.5 2625.26 3642.25Z"/><path d="M2.81141e-06-3.4375 418.345-3.43716 418.345 3.43784-2.81141e-06 3.4375ZM413.762-13.7497 441.262 0.000360892 413.762 13.7503Z" transform="matrix(-1 0 0 1 2652.76 3843.5)"/><path d="M2.83199e-06-3.4375 415.139-3.43716 415.139 3.43784-2.83199e-06 3.4375ZM410.556-13.7497 438.056 0.000360892 410.556 13.7503Z" transform="matrix(-1 0 0 1 1546.56 3843.5)"/><text font-family="Gill Sans MT,Gill Sans MT_MSFontService,sans-serif" font-weight="700" font-size="128" transform="matrix(1 0 0 1 1809.63 4523)">…</text><rect x="4132.5" y="3572.5" width="665" height="112" stroke="#042433" stroke-width="6.875" stroke-miterlimit="8" fill="#92D050"/><text fill="#FFFFFF" font-family="Gill Sans MT,Gill Sans MT_MSFontService,sans-serif" font-weight="400" font-size="83" transform="matrix(1 0 0 1 4175.7 3658)">READ REQUEST</text><path d="M3694.5 3625.06 4109.64 3625.06 4109.64 3631.94 3694.5 3631.94ZM4105.06 3614.75 4132.56 3628.5 4105.06 3642.25Z"/><path d="M4797.5 3625.06 5215.85 3625.06 5215.85 3631.94 4797.5 3631.94ZM5211.26 3614.75 5238.76 3628.5 5211.26 3642.25Z"/><rect x="4132.5" y="3718.5" width="665" height="112" stroke="#042433" stroke-width="6.875" stroke-miterlimit="8" fill="#92D050"/><text fill="#FFFFFF" font-family="Gill Sans MT,Gill Sans MT_MSFontService,sans-serif" font-weight="400" font-size="83" transform="matrix(1 0 0 1 4175.7 3804)">READ REQUEST</text><path d="M3694.5 3771.06 4109.64 3771.06 4109.64 3777.94 3694.5 3777.94ZM4105.06 3760.75 4132.56 3774.5 4105.06 3788.25Z"/><path d="M4797.5 3771.06 5215.85 3771.06 5215.85 3777.94 4797.5 3777.94ZM5211.26 3760.75 5238.76 3774.5 5211.26 3788.25Z"/><rect x="4135.5" y="3857.5" width="664" height="112" stroke="#042433" stroke-width="6.875" stroke-miterlimit="8" fill="#92D050"/><text fill="#FFFFFF" font-family="Gill Sans MT,Gill Sans MT_MSFontService,sans-serif" font-weight="400" font-size="83" transform="matrix(1 0 0 1 4178.34 3943)">READ REQUEST</text><path d="M3697.5 3910.06 4112.64 3910.06 4112.64 3916.94 3697.5 3916.94ZM4108.06 3899.75 4135.56 3913.5 4108.06 3927.25Z"/><path d="M4799.5 3910.06 5217.85 3910.06 5217.85 3916.94 4799.5 3916.94ZM5213.26 3899.75 5240.76 3913.5 5213.26 3927.25Z"/><rect x="4132.5" y="4111.5" width="665" height="112" stroke="#042433" stroke-width="6.875" stroke-miterlimit="8" fill="#FFC000"/><text fill="#FFFFFF" font-family="Gill Sans MT,Gill Sans MT_MSFontService,sans-serif" font-weight="400" font-size="73" transform="matrix(1 0 0 1 4192.03 4193)">READ RESPONSE</text><path d="M2.81141e-06-3.4375 418.345-3.43716 418.345 3.43784-2.81141e-06 3.4375ZM413.762-13.7497 441.262 0.000360892 413.762 13.7503Z" transform="matrix(-1 0 0 1 5238.76 4167.5)"/><path d="M2.83199e-06-3.4375 415.139-3.43716 415.139 3.43784-2.83199e-06 3.4375ZM410.556-13.7497 438.056 0.000360892 410.556 13.7503Z" transform="matrix(-1 0 0 1 4132.56 4167.5)"/><rect x="4135.5" y="4252.5" width="664" height="112" stroke="#042433" stroke-width="6.875" stroke-miterlimit="8" fill="#FFC000"/><text fill="#FFFFFF" font-family="Gill Sans MT,Gill Sans MT_MSFontService,sans-serif" font-weight="400" font-size="73" transform="matrix(1 0 0 1 4194.67 4334)">READ RESPONSE</text><path d="M2.81141e-06-3.4375 418.345-3.43716 418.345 3.43784-2.81141e-06 3.4375ZM413.762-13.7497 441.262 0.000360892 413.762 13.7503Z" transform="matrix(-1 0 0 1 5240.76 4308.5)"/><path d="M2.83199e-06-3.4375 415.139-3.43716 415.139 3.43784-2.83199e-06 3.4375ZM410.556-13.7497 438.056 0.000360892 410.556 13.7503Z" transform="matrix(-1 0 0 1 4135.56 4308.5)"/><rect x="4132.5" y="4397.5" width="665" height="112" stroke="#042433" stroke-width="6.875" stroke-miterlimit="8" fill="#FFC000"/><text fill="#FFFFFF" font-family="Gill Sans MT,Gill Sans MT_MSFontService,sans-serif" font-weight="400" font-size="73" transform="matrix(1 0 0 1 4192.03 4479)">READ RESPONSE</text><path d="M2.81141e-06-3.4375 418.345-3.43716 418.345 3.43784-2.81141e-06 3.4375ZM413.762-13.7497 441.262 0.000360892 413.762 13.7503Z" transform="matrix(-1 0 0 1 5238.76 4453.5)"/><path d="M2.83199e-06-3.4375 415.139-3.43716 415.139 3.43784-2.83199e-06 3.4375ZM410.556-13.7497 438.056 0.000360892 410.556 13.7503Z" transform="matrix(-1 0 0 1 4132.56 4453.5)"/><rect x="1550.5" y="4014.5" width="665" height="112" stroke="#042433" stroke-width="6.875" stroke-miterlimit="8" fill="#92D050"/><text fill="#FFFFFF" font-family="Gill Sans MT,Gill Sans MT_MSFontService,sans-serif" font-weight="400" font-size="83" transform="matrix(1 0 0 1 1593.74 4099)">READ REQUEST</text><rect x="1550.5" y="4229.5" width="665" height="112" stroke="#042433" stroke-width="6.875" stroke-miterlimit="8" fill="#FFC000"/><text fill="#FFFFFF" font-family="Gill Sans MT,Gill Sans MT_MSFontService,sans-serif" font-weight="400" font-size="73" transform="matrix(1 0 0 1 1610.07 4311)">READ RESPONSE</text><path d="M1112.5 4067.06 1527.64 4067.06 1527.64 4073.94 1112.5 4073.94ZM1523.06 4056.75 1550.56 4070.5 1523.06 4084.25Z"/><path d="M2215.5 4067.06 2633.85 4067.06 2633.85 4073.94 2215.5 4073.94ZM2629.26 4056.75 2656.76 4070.5 2629.26 4084.25Z"/><path d="M2.81141e-06-3.4375 418.345-3.43716 418.345 3.43784-2.81141e-06 3.4375ZM413.762-13.7497 441.262 0.000360892 413.762 13.7503Z" transform="matrix(-1 0 0 1 2656.76 4285.5)"/><path d="M2.83199e-06-3.4375 415.139-3.43716 415.139 3.43784-2.83199e-06 3.4375ZM410.556-13.7497 438.056 0.000360892 410.556 13.7503Z" transform="matrix(-1 0 0 1 1550.56 4285.5)"/></g></svg>