<svg width="6032" height="2229" xmlns="http://www.w3.org/2000/svg" xmlns:xlink="http://www.w3.org/1999/xlink" xml:space="preserve" overflow="hidden"><g transform="translate(53 -648)"><path d="M1242.5 878.336C1242.5 809.391 1298.39 753.5 1367.34 753.5L1973.66 753.5C2042.61 753.5 2098.5 809.391 2098.5 878.336L2098.5 1377.66C2098.5 1446.61 2042.61 1502.5 1973.66 1502.5L1367.34 1502.5C1298.39 1502.5 1242.5 1446.61 1242.5 1377.66Z" stroke="#042433" stroke-width="6.875" stroke-miterlimit="8" fill="#00B0F0" fill-rule="evenodd"/><text fill="#FFFFFF" font-family="Gill Sans MT,Gill Sans MT_MSFontService,sans-serif" font-weight="700" font-size="128" transform="matrix(1 0 0 1 1274.81 892)">CPU</text><path d="M3865.5 878.336C3865.5 809.391 3921.39 753.5 3990.34 753.5L4596.66 753.5C4665.61 753.5 4721.5 809.391 4721.5 878.336L4721.5 1377.66C4721.5 1446.61 4665.61 1502.5 4596.66 1502.5L3990.34 1502.5C3921.39 1502.5 3865.5 1446.61 3865.5 1377.66Z" stroke="#042433" stroke-width="6.875" stroke-miterlimit="8" fill="#00B0F0" fill-rule="evenodd"/><text fill="#FFFFFF" font-family="Gill Sans MT,Gill Sans MT_MSFontService,sans-serif" font-weight="700" font-size="128" transform="matrix(1 0 0 1 3897.81 892)">CPU</text><path d="M1242.5 1843.17C1242.5 1764.38 1306.38 1700.5 1385.17 1700.5L1955.83 1700.5C2034.62 1700.5 2098.5 1764.38 2098.5 1843.17L2098.5 2730.83C2098.5 2809.62 2034.62 2873.5 1955.83 2873.5L1385.17 2873.5C1306.38 2873.5 1242.5 2809.62 1242.5 2730.83Z" stroke="#042433" stroke-width="6.875" stroke-miterlimit="8" fill="#E97132" fill-rule="evenodd"/><path d="M3865.5 1843.17C3865.5 1764.38 3929.38 1700.5 4008.17 1700.5L4578.83 1700.5C4657.62 1700.5 4721.5 1764.38 4721.5 1843.17L4721.5 2730.83C4721.5 2809.62 4657.62 2873.5 4578.83 2873.5L4008.17 2873.5C3929.38 2873.5 3865.5 2809.62 3865.5 2730.83Z" stroke="#042433" stroke-width="6.875" stroke-miterlimit="8" fill="#E97132" fill-rule="evenodd"/><path d="M1340.5 999.334C1340.5 987.828 1349.83 978.5 1361.33 978.5L1978.67 978.5C1990.17 978.5 1999.5 987.828 1999.5 999.334L1999.5 1082.67C1999.5 1094.17 1990.17 1103.5 1978.67 1103.5L1361.33 1103.5C1349.83 1103.5 1340.5 1094.17 1340.5 1082.67Z" stroke="#042433" stroke-width="6.875" stroke-miterlimit="8" fill="#00B050" fill-rule="evenodd"/><text fill="#FFFFFF" font-family="Gill Sans MT,Gill Sans MT_MSFontService,sans-serif" font-weight="700" font-size="83" transform="matrix(1 0 0 1 1392.74 1070)">Coyote thread</text><path d="M1340.5 1161.33C1340.5 1149.83 1349.83 1140.5 1361.33 1140.5L1978.67 1140.5C1990.17 1140.5 1999.5 1149.83 1999.5 1161.33L1999.5 1244.67C1999.5 1256.17 1990.17 1265.5 1978.67 1265.5L1361.33 1265.5C1349.83 1265.5 1340.5 1256.17 1340.5 1244.67Z" stroke="#042433" stroke-width="6.875" stroke-miterlimit="8" fill="#00B050" fill-rule="evenodd"/><text fill="#FFFFFF" font-family="Gill Sans MT,Gill Sans MT_MSFontService,sans-serif" font-weight="700" font-size="83" transform="matrix(1 0 0 1 1404.49 1232)">Coyote driver</text><path d="M1340.5 1323.33C1340.5 1311.83 1349.83 1302.5 1361.33 1302.5L1978.67 1302.5C1990.17 1302.5 1999.5 1311.83 1999.5 1323.33L1999.5 1406.67C1999.5 1418.17 1990.17 1427.5 1978.67 1427.5L1361.33 1427.5C1349.83 1427.5 1340.5 1418.17 1340.5 1406.67Z" stroke="#042433" stroke-width="6.875" stroke-miterlimit="8" fill="#FFC000" fill-rule="evenodd"/><text fill="#FFFFFF" font-family="Gill Sans MT,Gill Sans MT_MSFontService,sans-serif" font-weight="700" font-size="83" transform="matrix(1 0 0 1 1540.68 1394)">DRAM</text><path d="M3963.5 999.334C3963.5 987.828 3972.83 978.5 3984.33 978.5L4602.67 978.5C4614.17 978.5 4623.5 987.828 4623.5 999.334L4623.5 1082.67C4623.5 1094.17 4614.17 1103.5 4602.67 1103.5L3984.33 1103.5C3972.83 1103.5 3963.5 1094.17 3963.5 1082.67Z" stroke="#042433" stroke-width="6.875" stroke-miterlimit="8" fill="#00B050" fill-rule="evenodd"/><text fill="#FFFFFF" font-family="Gill Sans MT,Gill Sans MT_MSFontService,sans-serif" font-weight="700" font-size="83" transform="matrix(1 0 0 1 4015.75 1070)">Coyote thread</text><path d="M3963.5 1161.33C3963.5 1149.83 3972.83 1140.5 3984.33 1140.5L4602.67 1140.5C4614.17 1140.5 4623.5 1149.83 4623.5 1161.33L4623.5 1244.67C4623.5 1256.17 4614.17 1265.5 4602.67 1265.5L3984.33 1265.5C3972.83 1265.5 3963.5 1256.17 3963.5 1244.67Z" stroke="#042433" stroke-width="6.875" stroke-miterlimit="8" fill="#00B050" fill-rule="evenodd"/><text fill="#FFFFFF" font-family="Gill Sans MT,Gill Sans MT_MSFontService,sans-serif" font-weight="700" font-size="83" transform="matrix(1 0 0 1 4027.49 1232)">Coyote driver</text><path d="M3963.5 1323.33C3963.5 1311.83 3972.83 1302.5 3984.33 1302.5L4602.67 1302.5C4614.17 1302.5 4623.5 1311.83 4623.5 1323.33L4623.5 1406.67C4623.5 1418.17 4614.17 1427.5 4602.67 1427.5L3984.33 1427.5C3972.83 1427.5 3963.5 1418.17 3963.5 1406.67Z" stroke="#042433" stroke-width="6.875" stroke-miterlimit="8" fill="#FFC000" fill-rule="evenodd"/><text fill="#FFFFFF" font-family="Gill Sans MT,Gill Sans MT_MSFontService,sans-serif" font-weight="700" font-size="83" transform="matrix(1 0 0 1 4163.69 1394)">DRAM</text><path d="M1340.5 2203.33C1340.5 2167.53 1369.53 2138.5 1405.33 2138.5L1664.67 2138.5C1700.47 2138.5 1729.5 2167.53 1729.5 2203.33L1729.5 2702.67C1729.5 2738.47 1700.47 2767.5 1664.67 2767.5L1405.33 2767.5C1369.53 2767.5 1340.5 2738.47 1340.5 2702.67Z" stroke="#042433" stroke-width="6.875" stroke-miterlimit="8" fill="#00B050" fill-rule="evenodd"/><text fill="#FFFFFF" font-family="Gill Sans MT,Gill Sans MT_MSFontService,sans-serif" font-weight="700" font-size="83" transform="matrix(1 0 0 1 1396.27 2482)">vFPGA</text><path d="M4234.5 2203.33C4234.5 2167.53 4263.53 2138.5 4299.33 2138.5L4558.67 2138.5C4594.47 2138.5 4623.5 2167.53 4623.5 2203.33L4623.5 2702.67C4623.5 2738.47 4594.47 2767.5 4558.67 2767.5L4299.33 2767.5C4263.53 2767.5 4234.5 2738.47 4234.5 2702.67Z" stroke="#042433" stroke-width="6.875" stroke-miterlimit="8" fill="#00B050" fill-rule="evenodd"/><text fill="#FFFFFF" font-family="Gill Sans MT,Gill Sans MT_MSFontService,sans-serif" font-weight="700" font-size="83" transform="matrix(1 0 0 1 4289.77 2482)">vFPGA</text><path d="M1871.5 2159.83C1871.5 2148.05 1881.05 2138.5 1892.83 2138.5L1978.17 2138.5C1989.95 2138.5 1999.5 2148.05 1999.5 2159.83L1999.5 2746.17C1999.5 2757.95 1989.95 2767.5 1978.17 2767.5L1892.83 2767.5C1881.05 2767.5 1871.5 2757.95 1871.5 2746.17Z" stroke="#042433" stroke-width="6.875" stroke-miterlimit="8" fill="#FFC000" fill-rule="evenodd"/><text fill="#FFFFFF" font-family="Gill Sans MT,Gill Sans MT_MSFontService,sans-serif" font-weight="700" font-size="83" transform="matrix(1 0 0 1 1898.8 2334)">R</text><text fill="#FFFFFF" font-family="Gill Sans MT,Gill Sans MT_MSFontService,sans-serif" font-weight="700" font-size="83" transform="matrix(1 0 0 1 1898.8 2433)">D</text><text fill="#FFFFFF" font-family="Gill Sans MT,Gill Sans MT_MSFontService,sans-serif" font-weight="700" font-size="83" transform="matrix(1 0 0 1 1898.8 2532)">M</text><text fill="#FFFFFF" font-family="Gill Sans MT,Gill Sans MT_MSFontService,sans-serif" font-weight="700" font-size="83" transform="matrix(1 0 0 1 1898.8 2631)">A</text><path d="M3963.5 2160C3963.5 2148.13 3973.13 2138.5 3985 2138.5L4071 2138.5C4082.87 2138.5 4092.5 2148.13 4092.5 2160L4092.5 2746C4092.5 2757.87 4082.87 2767.5 4071 2767.5L3985 2767.5C3973.13 2767.5 3963.5 2757.87 3963.5 2746Z" stroke="#042433" stroke-width="6.875" stroke-miterlimit="8" fill="#FFC000" fill-rule="evenodd"/><text fill="#FFFFFF" font-family="Gill Sans MT,Gill Sans MT_MSFontService,sans-serif" font-weight="700" font-size="83" transform="matrix(1 0 0 1 3991.19 2334)">R</text><text fill="#FFFFFF" font-family="Gill Sans MT,Gill Sans MT_MSFontService,sans-serif" font-weight="700" font-size="83" transform="matrix(1 0 0 1 3991.19 2433)">D</text><text fill="#FFFFFF" font-family="Gill Sans MT,Gill Sans MT_MSFontService,sans-serif" font-weight="700" font-size="83" transform="matrix(1 0 0 1 3991.19 2532)">M</text><text fill="#FFFFFF" font-family="Gill Sans MT,Gill Sans MT_MSFontService,sans-serif" font-weight="700" font-size="83" transform="matrix(1 0 0 1 3991.19 2631)">A</text><text fill="#FFFFFF" font-family="Gill Sans MT,Gill Sans MT_MSFontService,sans-serif" font-weight="700" font-size="128" transform="matrix(1 0 0 1 1320.61 1859)">FPGA</text><text fill="#FFFFFF" font-family="Gill Sans MT,Gill Sans MT_MSFontService,sans-serif" font-weight="700" font-size="128" transform="matrix(1 0 0 1 3953.84 1859)">FPGA</text><rect x="2544" y="2353" width="835" height="190" stroke="#000000" stroke-width="10.3125" stroke-miterlimit="8" fill="none"/><rect x="2585.5" y="2418.5" width="102" height="72.9998" stroke="#042433" stroke-width="6.875" stroke-miterlimit="8" fill="none"/><rect x="2605.5" y="2491.5" width="61.9998" height="27.9998" stroke="#042433" stroke-width="6.875" stroke-miterlimit="8" fill="none"/><path d="M2609.5 2491.5 2637.05 2491.5" stroke="#FFFFFF" stroke-width="6.875" stroke-miterlimit="8" fill="none" fill-rule="evenodd"/><path d="M2636.5 2491.5 2664.05 2491.5" stroke="#FFFFFF" stroke-width="6.875" stroke-miterlimit="8" fill="none" fill-rule="evenodd"/><rect x="2748.5" y="2418.5" width="101" height="72.9998" stroke="#042433" stroke-width="6.875" stroke-miterlimit="8" fill="none"/><rect x="2767.5" y="2491.5" width="61.9998" height="27.9998" stroke="#042433" stroke-width="6.875" stroke-miterlimit="8" fill="none"/><path d="M2771.5 2491.5 2799.05 2491.5" stroke="#FFFFFF" stroke-width="6.875" stroke-miterlimit="8" fill="none" fill-rule="evenodd"/><path d="M2798.5 2491.5 2826.05 2491.5" stroke="#FFFFFF" stroke-width="6.875" stroke-miterlimit="8" fill="none" fill-rule="evenodd"/><rect x="2911.5" y="2418.5" width="102" height="72.9998" stroke="#042433" stroke-width="6.875" stroke-miterlimit="8" fill="none"/><rect x="2931.5" y="2491.5" width="61.9998" height="27.9998" stroke="#042433" stroke-width="6.875" stroke-miterlimit="8" fill="none"/><path d="M2934.5 2491.5 2962.05 2491.5" stroke="#FFFFFF" stroke-width="6.875" stroke-miterlimit="8" fill="none" fill-rule="evenodd"/><path d="M2962.5 2491.5 2990.05 2491.5" stroke="#FFFFFF" stroke-width="6.875" stroke-miterlimit="8" fill="none" fill-rule="evenodd"/><rect x="3073.5" y="2418.5" width="102" height="72.9998" stroke="#042433" stroke-width="6.875" stroke-miterlimit="8" fill="none"/><rect x="3093.5" y="2491.5" width="62.0002" height="27.9998" stroke="#042433" stroke-width="6.875" stroke-miterlimit="8" fill="none"/><path d="M3097.5 2491.5 3125.05 2491.5" stroke="#FFFFFF" stroke-width="6.875" stroke-miterlimit="8" fill="none" fill-rule="evenodd"/><path d="M3124.5 2491.5 3152.05 2491.5" stroke="#FFFFFF" stroke-width="6.875" stroke-miterlimit="8" fill="none" fill-rule="evenodd"/><rect x="3236.5" y="2418.5" width="101" height="72.9998" stroke="#042433" stroke-width="6.875" stroke-miterlimit="8" fill="none"/><rect x="3256.5" y="2491.5" width="62.0002" height="27.9998" stroke="#042433" stroke-width="6.875" stroke-miterlimit="8" fill="none"/><path d="M3259.5 2491.5 3287.05 2491.5" stroke="#FFFFFF" stroke-width="6.875" stroke-miterlimit="8" fill="none" fill-rule="evenodd"/><path d="M3287.5 2491.5 3315.05 2491.5" stroke="#FFFFFF" stroke-width="6.875" stroke-miterlimit="8" fill="none" fill-rule="evenodd"/><rect x="2622.5" y="2376.5" width="28.0002" height="28.0002" stroke="#000000" stroke-width="3.4375" stroke-miterlimit="8" fill="#196B24"/><rect x="2785.5" y="2376.5" width="27.0002" height="28.0002" stroke="#000000" stroke-width="3.4375" stroke-miterlimit="8" fill="#196B24"/><rect x="2949.5" y="2376.5" width="28.0002" height="28.0002" stroke="#000000" stroke-width="3.4375" stroke-miterlimit="8" fill="#196B24"/><rect x="3108.5" y="2376.5" width="27.9998" height="27.0002" stroke="#000000" stroke-width="3.4375" stroke-miterlimit="8" fill="#196B24"/><rect x="3273.5" y="2376.5" width="26.9998" height="27.0002" stroke="#000000" stroke-width="3.4375" stroke-miterlimit="8" fill="#196B24"/><path d="M2051.06 2438.19 2492.56 2438.19 2492.56 2458.81 2051.06 2458.81ZM2061.38 2479.44 1999.5 2448.5 2061.38 2417.56ZM2482.25 2417.56 2544.12 2448.5 2482.25 2479.44Z"/><path d="M3431.06 2438.19 3911.71 2438.19 3911.71 2458.81 3431.06 2458.81ZM3441.38 2479.44 3379.5 2448.5 3441.38 2417.56ZM3901.39 2417.56 3963.27 2448.5 3901.39 2479.44Z"/><path d="M2024.78 1196.84 2055.72 1196.84 2055.72 1207.16 2024.78 1207.16ZM2066.03 1196.84 2096.97 1196.84 2096.97 1207.16 2066.03 1207.16ZM2107.28 1196.84 2138.22 1196.84 2138.22 1207.16 2107.28 1207.16ZM2148.53 1196.84 2179.47 1196.84 2179.47 1207.16 2148.53 1207.16ZM2189.78 1196.84 2220.72 1196.84 2220.72 1207.16 2189.78 1207.16ZM2231.03 1196.84 2261.97 1196.84 2261.97 1207.16 2231.03 1207.16ZM2272.28 1196.84 2303.22 1196.84 2303.22 1207.16 2272.28 1207.16ZM2313.53 1196.84 2344.47 1196.84 2344.47 1207.16 2313.53 1207.16ZM2354.78 1196.84 2385.72 1196.84 2385.72 1207.16 2354.78 1207.16ZM2396.03 1196.84 2426.97 1196.84 2426.97 1207.16 2396.03 1207.16ZM2437.28 1196.84 2468.22 1196.84 2468.22 1207.16 2437.28 1207.16ZM2478.53 1196.84 2509.47 1196.84 2509.47 1207.16 2478.53 1207.16ZM2519.78 1196.84 2550.72 1196.84 2550.72 1207.16 2519.78 1207.16ZM2561.03 1196.84 2591.97 1196.84 2591.97 1207.16 2561.03 1207.16ZM2602.28 1196.84 2633.22 1196.84 2633.22 1207.16 2602.28 1207.16ZM2643.53 1196.84 2674.47 1196.84 2674.47 1207.16 2643.53 1207.16ZM2684.78 1196.84 2715.72 1196.84 2715.72 1207.16 2684.78 1207.16ZM2726.03 1196.84 2756.97 1196.84 2756.97 1207.16 2726.03 1207.16ZM2767.28 1196.84 2798.22 1196.84 2798.22 1207.16 2767.28 1207.16ZM2808.53 1196.84 2839.47 1196.84 2839.47 1207.16 2808.53 1207.16ZM2849.78 1196.84 2880.72 1196.84 2880.72 1207.16 2849.78 1207.16ZM2891.03 1196.84 2921.97 1196.84 2921.97 1207.16 2891.03 1207.16ZM2932.28 1196.84 2963.22 1196.84 2963.22 1207.16 2932.28 1207.16ZM2973.53 1196.84 3004.47 1196.84 3004.47 1207.16 2973.53 1207.16ZM3014.78 1196.84 3045.72 1196.84 3045.72 1207.16 3014.78 1207.16ZM3056.03 1196.84 3086.97 1196.84 3086.97 1207.16 3056.03 1207.16ZM3097.28 1196.84 3128.22 1196.84 3128.22 1207.16 3097.28 1207.16ZM3138.53 1196.84 3169.47 1196.84 3169.47 1207.16 3138.53 1207.16ZM3179.78 1196.84 3210.72 1196.84 3210.72 1207.16 3179.78 1207.16ZM3221.03 1196.84 3251.97 1196.84 3251.97 1207.16 3221.03 1207.16ZM3262.28 1196.84 3293.22 1196.84 3293.22 1207.16 3262.28 1207.16ZM3303.53 1196.84 3334.47 1196.84 3334.47 1207.16 3303.53 1207.16ZM3344.78 1196.84 3375.72 1196.84 3375.72 1207.16 3344.78 1207.16ZM3386.03 1196.84 3416.97 1196.84 3416.97 1207.16 3386.03 1207.16ZM3427.28 1196.84 3458.22 1196.84 3458.22 1207.16 3427.28 1207.16ZM3468.53 1196.84 3499.47 1196.84 3499.47 1207.16 3468.53 1207.16ZM3509.78 1196.84 3540.72 1196.84 3540.72 1207.16 3509.78 1207.16ZM3551.03 1196.84 3581.97 1196.84 3581.97 1207.16 3551.03 1207.16ZM3592.28 1196.84 3623.22 1196.84 3623.22 1207.16 3592.28 1207.16ZM3633.53 1196.84 3664.47 1196.84 3664.47 1207.16 3633.53 1207.16ZM3674.78 1196.84 3705.72 1196.84 3705.72 1207.16 3674.78 1207.16ZM3716.03 1196.84 3746.97 1196.84 3746.97 1207.16 3716.03 1207.16ZM3757.28 1196.84 3788.22 1196.84 3788.22 1207.16 3757.28 1207.16ZM3798.53 1196.84 3829.47 1196.84 3829.47 1207.16 3798.53 1207.16ZM3839.78 1196.84 3870.72 1196.84 3870.72 1207.16 3839.78 1207.16ZM3881.03 1196.84 3911.97 1196.84 3911.97 1207.16 3881.03 1207.16ZM3922.28 1196.84 3937 1196.84 3937 1207.16 3922.28 1207.16ZM2029.94 1217.47 1999 1202 2029.94 1186.53ZM3931.83 1186.53 3962.77 1202 3931.83 1217.47Z"/><text font-family="Gill Sans MT,Gill Sans MT_MSFontService,sans-serif" font-weight="400" font-size="92" transform="matrix(1 0 0 1 2840.87 2643)">Switch</text><rect x="2535.5" y="840.5" width="854" height="275" stroke="#042433" stroke-width="6.875" stroke-linecap="square" stroke-miterlimit="8" stroke-dasharray="20.625 6.875" fill="#D9D9D9"/><text font-family="Gill Sans MT,Gill Sans MT_MSFontService,sans-serif" font-weight="700" font-size="64" transform="matrix(1 0 0 1 2723.68 924)">Meta</text><text font-family="Gill Sans MT,Gill Sans MT_MSFontService,sans-serif" font-weight="700" font-size="64" transform="matrix(1 0 0 1 2875.5 924)">-</text><text font-family="Gill Sans MT,Gill Sans MT_MSFontService,sans-serif" font-weight="700" font-size="64" transform="matrix(1 0 0 1 2896.7 924)">Exchange:</text><text font-family="Gill Sans MT,Gill Sans MT_MSFontService,sans-serif" font-weight="400" font-size="64" transform="matrix(1 0 0 1 2645.85 1001)">ip_addr</text><text font-family="Gill Sans MT,Gill Sans MT_MSFontService,sans-serif" font-weight="400" font-size="64" transform="matrix(1 0 0 1 2838.76 1001)">, QPN, PSN, </text><text font-family="Gill Sans MT,Gill Sans MT_MSFontService,sans-serif" font-weight="400" font-size="64" transform="matrix(1 0 0 1 3162.69 1001)">rkey</text><text font-family="Gill Sans MT,Gill Sans MT_MSFontService,sans-serif" font-weight="400" font-size="64" transform="matrix(1 0 0 1 3269.85 1001)">, </text><text font-family="Gill Sans MT,Gill Sans MT_MSFontService,sans-serif" font-weight="400" font-size="64" transform="matrix(1 0 0 1 2831.04 1078)">vaddr</text><text font-family="Gill Sans MT,Gill Sans MT_MSFontService,sans-serif" font-weight="400" font-size="64" transform="matrix(1 0 0 1 2970.1 1078)">, </text><text font-family="Gill Sans MT,Gill Sans MT_MSFontService,sans-serif" font-weight="400" font-size="64" transform="matrix(1 0 0 1 2995.77 1078)">size</text><text font-family="Gill Sans MT,Gill Sans MT_MSFontService,sans-serif" font-weight="400" font-size="92" transform="matrix(1 0 0 1 2150.74 1304)">TCP / IP</text><text font-family="Gill Sans MT,Gill Sans MT_MSFontService,sans-serif" font-weight="400" font-size="92" transform="matrix(1 0 0 1 2123.27 2554)">RoCE v2</text><path d="M1340.5 1205.94 1319.88 1205.94 1319.88 1199.06 1340.5 1199.06ZM1313 1205.94 1292.38 1205.94 1292.38 1199.06 1313 1199.06ZM1285.5 1205.94 1264.88 1205.94 1264.88 1199.06 1285.5 1199.06ZM1258 1205.94 1237.38 1205.94 1237.38 1199.06 1258 1199.06ZM1230.5 1205.94 1209.88 1205.94 1209.88 1199.06 1230.5 1199.06ZM1203 1205.94 1182.38 1205.94 1182.38 1199.06 1203 1199.06ZM1175.5 1205.94 1163.31 1205.94 1166.74 1202.5 1166.74 1210.93 1159.87 1210.93 1159.87 1199.06 1175.5 1199.06ZM1166.74 1217.81 1166.74 1238.43 1159.87 1238.43 1159.87 1217.81ZM1166.74 1245.31 1166.74 1265.93 1159.87 1265.93 1159.87 1245.31ZM1166.74 1272.81 1166.74 1293.43 1159.87 1293.43 1159.87 1272.81ZM1166.74 1300.31 1166.74 1320.93 1159.87 1320.93 1159.87 1300.31ZM1166.74 1327.81 1166.74 1348.43 1159.87 1348.43 1159.87 1327.81ZM1166.74 1355.31 1166.74 1375.93 1159.87 1375.93 1159.87 1355.31ZM1166.74 1382.81 1166.74 1403.43 1159.87 1403.43 1159.87 1382.81ZM1166.74 1410.31 1166.74 1430.93 1159.87 1430.93 1159.87 1410.31ZM1166.74 1437.81 1166.74 1458.43 1159.87 1458.43 1159.87 1437.81ZM1166.74 1465.31 1166.74 1485.93 1159.87 1485.93 1159.87 1465.31ZM1166.74 1492.81 1166.74 1513.43 1159.87 1513.43 1159.87 1492.81ZM1166.74 1520.31 1166.74 1540.93 1159.87 1540.93 1159.87 1520.31ZM1166.74 1547.81 1166.74 1568.43 1159.87 1568.43 1159.87 1547.81ZM1166.74 1575.31 1166.74 1595.93 1159.87 1595.93 1159.87 1575.31ZM1167.78 1594.89 1188.41 1594.89 1188.41 1601.77 1167.78 1601.77ZM1195.28 1594.89 1215.91 1594.89 1215.91 1601.77 1195.28 1601.77ZM1222.78 1594.89 1243.41 1594.89 1243.41 1601.77 1222.78 1601.77ZM1250.28 1594.89 1270.91 1594.89 1270.91 1601.77 1250.28 1601.77ZM1277.78 1594.89 1298.41 1594.89 1298.41 1601.77 1277.78 1601.77ZM1305.28 1594.89 1325.91 1594.89 1325.91 1601.77 1305.28 1601.77ZM1332.78 1594.89 1353.41 1594.89 1353.41 1601.77 1332.78 1601.77ZM1360.28 1594.89 1380.91 1594.89 1380.91 1601.77 1360.28 1601.77ZM1387.78 1594.89 1408.41 1594.89 1408.41 1601.77 1387.78 1601.77ZM1415.28 1594.89 1435.91 1594.89 1435.91 1601.77 1415.28 1601.77ZM1442.78 1594.89 1463.41 1594.89 1463.41 1601.77 1442.78 1601.77ZM1470.28 1594.89 1490.91 1594.89 1490.91 1601.77 1470.28 1601.77ZM1497.78 1594.89 1518.41 1594.89 1518.41 1601.77 1497.78 1601.77ZM1525.28 1594.89 1545.91 1594.89 1545.91 1601.77 1525.28 1601.77ZM1552.78 1594.89 1573.41 1594.89 1573.41 1601.77 1552.78 1601.77ZM1580.28 1594.89 1600.91 1594.89 1600.91 1601.77 1580.28 1601.77ZM1607.78 1594.89 1628.41 1594.89 1628.41 1601.77 1607.78 1601.77ZM1635.28 1594.89 1655.91 1594.89 1655.91 1601.77 1635.28 1601.77ZM1662.78 1594.89 1683.41 1594.89 1683.41 1601.77 1662.78 1601.77ZM1690.28 1594.89 1710.91 1594.89 1710.91 1601.77 1690.28 1601.77ZM1717.78 1594.89 1738.41 1594.89 1738.41 1601.77 1717.78 1601.77ZM1745.28 1594.89 1765.91 1594.89 1765.91 1601.77 1745.28 1601.77ZM1772.78 1594.89 1793.41 1594.89 1793.41 1601.77 1772.78 1601.77ZM1800.28 1594.89 1820.91 1594.89 1820.91 1601.77 1800.28 1601.77ZM1827.78 1594.89 1848.41 1594.89 1848.41 1601.77 1827.78 1601.77ZM1855.28 1594.89 1875.91 1594.89 1875.91 1601.77 1855.28 1601.77ZM1882.78 1594.89 1903.41 1594.89 1903.41 1601.77 1882.78 1601.77ZM1910.28 1594.89 1930.91 1594.89 1930.91 1601.77 1910.28 1601.77ZM1938.87 1600.68 1938.87 1621.31 1931.99 1621.31 1931.99 1600.68ZM1938.87 1628.18 1938.87 1648.81 1931.99 1648.81 1931.99 1628.18ZM1938.87 1655.68 1938.87 1676.31 1931.99 1676.31 1931.99 1655.68ZM1938.87 1683.18 1938.87 1703.81 1931.99 1703.81 1931.99 1683.18ZM1938.87 1710.68 1938.87 1731.31 1931.99 1731.31 1931.99 1710.68ZM1938.87 1738.18 1938.87 1758.81 1931.99 1758.81 1931.99 1738.18ZM1938.87 1765.68 1938.87 1786.31 1931.99 1786.31 1931.99 1765.68ZM1938.87 1793.18 1938.87 1813.81 1931.99 1813.81 1931.99 1793.18ZM1938.87 1820.68 1938.87 1841.31 1931.99 1841.31 1931.99 1820.68ZM1938.87 1848.18 1938.87 1868.81 1931.99 1868.81 1931.99 1848.18ZM1938.87 1875.68 1938.87 1896.31 1931.99 1896.31 1931.99 1875.68ZM1938.87 1903.18 1938.87 1923.81 1931.99 1923.81 1931.99 1903.18ZM1938.87 1930.68 1938.87 1951.31 1931.99 1951.31 1931.99 1930.68ZM1938.87 1958.18 1938.87 1978.81 1931.99 1978.81 1931.99 1958.18ZM1938.87 1985.68 1938.87 2006.31 1931.99 2006.31 1931.99 1985.68ZM1938.87 2013.18 1938.87 2033.81 1931.99 2033.81 1931.99 2013.18ZM1938.87 2040.68 1938.87 2061.31 1931.99 2061.31 1931.99 2040.68ZM1938.87 2068.18 1938.87 2088.81 1931.99 2088.81 1931.99 2068.18ZM1938.87 2095.68 1938.87 2115.21 1931.99 2115.21 1931.99 2095.68ZM1949.18 2110.63 1935.43 2138.13 1921.68 2110.63Z"/><path d="M0 3.4375-20.625 3.4375-20.625-3.4375 0-3.4375ZM-27.5 3.4375-48.125 3.4375-48.125-3.4375-27.5-3.4375ZM-55 3.4375-75.625 3.4375-75.625-3.4375-55-3.4375ZM-82.5 3.4375-103.125 3.4375-103.125-3.4375-82.5-3.4375ZM-110 3.4375-130.625 3.4375-130.625-3.4375-110-3.4375ZM-137.5 3.4375-158.125 3.4375-158.125-3.4375-137.5-3.4375ZM-165 3.4375-168.584 3.4375-165.147 0-165.147 17.0405-172.022 17.0405-172.022-3.4375-165-3.4375ZM-165.147 23.9155-165.147 44.5406-172.022 44.5406-172.022 23.9155ZM-165.147 51.4156-165.147 72.0406-172.022 72.0406-172.022 51.4156ZM-165.147 78.9156-165.147 99.5406-172.022 99.5406-172.022 78.9156ZM-165.147 106.416-165.147 127.041-172.022 127.041-172.022 106.416ZM-165.147 133.916-165.147 154.541-172.022 154.541-172.022 133.916ZM-165.147 161.416-165.147 182.041-172.022 182.041-172.022 161.416ZM-165.147 188.916-165.147 209.541-172.022 209.541-172.022 188.916ZM-165.147 216.416-165.147 237.041-172.022 237.041-172.022 216.416ZM-165.147 243.916-165.147 264.541-172.022 264.541-172.022 243.916ZM-165.147 271.416-165.147 292.041-172.022 292.041-172.022 271.416ZM-165.147 298.916-165.147 319.541-172.022 319.541-172.022 298.916ZM-165.147 326.416-165.147 347.041-172.022 347.041-172.022 326.416ZM-165.147 353.916-165.147 374.541-172.022 374.541-172.022 353.916ZM-165.147 381.416-165.147 402.041-172.022 402.041-172.022 381.416ZM-165.147 408.916-165.147 429.541-172.022 429.541-172.022 408.916ZM-165.147 436.416-165.147 457.041-172.022 457.041-172.022 436.416ZM-165.147 463.916-165.147 484.541-172.022 484.541-172.022 463.916ZM-165.147 491.416-165.147 512.041-172.022 512.041-172.022 491.416ZM-165.147 518.916-165.147 539.541-172.022 539.541-172.022 518.916ZM-165.147 546.416-165.147 567.041-172.022 567.041-172.022 546.416ZM-165.147 573.916-165.147 594.541-172.022 594.541-172.022 573.916ZM-165.147 601.416-165.147 622.041-172.022 622.041-172.022 601.416ZM-165.147 628.916-165.147 649.541-172.022 649.541-172.022 628.916ZM-165.147 656.416-165.147 677.041-172.022 677.041-172.022 656.416ZM-165.147 683.916-165.147 704.541-172.022 704.541-172.022 683.916ZM-165.147 711.416-165.147 732.041-172.022 732.041-172.022 711.416ZM-165.147 738.916-165.147 759.541-172.022 759.541-172.022 738.916ZM-168.169 762.563-147.544 762.563-147.544 769.438-168.169 769.438ZM-140.669 762.563-120.044 762.563-120.044 769.438-140.669 769.438ZM-113.169 762.563-92.5443 762.563-92.5443 769.438-113.169 769.438ZM-85.6693 762.563-65.0443 762.563-65.0443 769.438-85.6693 769.438ZM-58.1693 762.563-37.5443 762.563-37.5443 769.438-58.1693 769.438ZM-30.6693 762.563-10.0443 762.563-10.0443 769.438-30.6693 769.438ZM-3.16933 762.563 17.4557 762.563 17.4557 769.438-3.16933 769.438ZM24.3307 762.563 44.9557 762.563 44.9557 769.438 24.3307 769.438ZM51.8307 762.563 72.4557 762.563 72.4557 769.438 51.8307 769.438ZM79.3307 762.563 99.9557 762.563 99.9557 769.438 79.3307 769.438ZM106.831 762.563 127.456 762.563 127.456 769.438 106.831 769.438ZM134.331 762.563 154.956 762.563 154.956 769.438 134.331 769.438ZM161.831 762.563 182.456 762.563 182.456 769.438 161.831 769.438ZM189.331 762.563 209.956 762.563 209.956 769.438 189.331 769.438ZM216.831 762.563 237.456 762.563 237.456 769.438 216.831 769.438ZM244.331 762.563 264.956 762.563 264.956 769.438 244.331 769.438ZM271.831 762.563 292.456 762.563 292.456 769.438 271.831 769.438ZM299.331 762.563 319.956 762.563 319.956 769.438 299.331 769.438ZM326.831 762.563 347.456 762.563 347.456 769.438 326.831 769.438ZM354.331 762.563 374.956 762.563 374.956 769.438 354.331 769.438ZM381.831 762.563 402.456 762.563 402.456 769.438 381.831 769.438ZM409.331 762.563 429.956 762.563 429.956 769.438 409.331 769.438ZM436.831 762.563 457.456 762.563 457.456 769.438 436.831 769.438ZM464.331 762.563 484.956 762.563 484.956 769.438 464.331 769.438ZM491.831 762.563 512.456 762.563 512.456 769.438 491.831 769.438ZM519.331 762.563 539.956 762.563 539.956 769.438 519.331 769.438ZM546.831 762.563 567.456 762.563 567.456 769.438 546.831 769.438ZM574.331 762.563 598.365 762.563 598.365 766.028 591.49 766.028 591.49 766 594.928 769.438 574.331 769.438ZM598.365 772.903 598.365 793.528 591.49 793.528 591.49 772.903ZM598.365 800.403 598.365 821.028 591.49 821.028 591.49 800.403ZM598.365 827.903 598.365 848.528 591.49 848.528 591.49 827.903ZM598.365 855.403 598.365 876.028 591.49 876.028 591.49 855.403ZM598.365 882.903 598.365 903.528 591.49 903.528 591.49 882.903ZM598.365 910.403 598.365 912.714 591.49 912.714 591.49 910.403ZM608.678 908.13 594.928 935.63 581.178 908.13Z" transform="matrix(-1 0 0 1 4623.43 1202.5)"/><path d="M2914.5 731.5C2914.5 700.02 2942.03 674.5 2976 674.5 3009.97 674.5 3037.5 700.02 3037.5 731.5 3037.5 762.98 3009.97 788.5 2976 788.5 2942.03 788.5 2914.5 762.98 2914.5 731.5Z" stroke="#000000" stroke-width="6.875" stroke-miterlimit="8" fill-rule="evenodd"/><text fill="#FFFFFF" font-family="Gill Sans MT,Gill Sans MT_MSFontService,sans-serif" font-weight="400" font-size="92" transform="matrix(1 0 0 1 2952.66 764)">1</text><path d="M1975.5 1601.5C1975.5 1570.02 2003.03 1544.5 2037 1544.5 2070.97 1544.5 2098.5 1570.02 2098.5 1601.5 2098.5 1632.98 2070.97 1658.5 2037 1658.5 2003.03 1658.5 1975.5 1632.98 1975.5 1601.5Z" stroke="#000000" stroke-width="6.875" stroke-miterlimit="8" fill-rule="evenodd"/><text fill="#FFFFFF" font-family="Gill Sans MT,Gill Sans MT_MSFontService,sans-serif" font-weight="400" font-size="92" transform="matrix(1 0 0 1 2013.45 1634)">2</text><path d="M4625.5 1601.5C4625.5 1570.02 4653.03 1544.5 4687 1544.5 4720.97 1544.5 4748.5 1570.02 4748.5 1601.5 4748.5 1632.98 4720.97 1658.5 4687 1658.5 4653.03 1658.5 4625.5 1632.98 4625.5 1601.5Z" stroke="#000000" stroke-width="6.875" stroke-miterlimit="8" fill-rule="evenodd"/><text fill="#FFFFFF" font-family="Gill Sans MT,Gill Sans MT_MSFontService,sans-serif" font-weight="400" font-size="92" transform="matrix(1 0 0 1 4663.9 1634)">2</text><text font-family="Aptos,Aptos_MSFontService,sans-serif" font-weight="700" font-size="83" transform="matrix(1 0 0 1 2140.52 1622)">QP</text><text font-family="Aptos,Aptos_MSFontService,sans-serif" font-weight="700" font-size="83" transform="matrix(1 0 0 1 2249.01 1622)">-</text><text font-family="Aptos,Aptos_MSFontService,sans-serif" font-weight="700" font-size="83" transform="matrix(1 0 0 1 2277.66 1622)">SetUp</text><text font-family="Aptos,Aptos_MSFontService,sans-serif" font-weight="700" font-size="83" transform="matrix(1 0 0 1 2507.4 1622)">: </text><text font-family="Aptos,Aptos_MSFontService,sans-serif" font-weight="400" font-size="83" transform="matrix(1 0 0 1 2548.65 1622)">QPN, </text><text font-family="Aptos,Aptos_MSFontService,sans-serif" font-weight="400" font-size="83" transform="matrix(1 0 0 1 2754.9 1622)">vaddr</text><text font-family="Aptos,Aptos_MSFontService,sans-serif" font-weight="400" font-size="83" transform="matrix(1 0 0 1 2949.69 1622)">…</text><path d="M25.7811-5.15625 285.656-5.15625 285.656 1093.58 30.3645 1093.58 30.3645 1083.26 280.5 1083.26 275.344 1088.42 275.344 0 280.5 5.15625 25.7811 5.15625ZM30.9375 15.4688 0 0 30.9375-15.4688ZM35.5208 1103.89 4.58333 1088.42 35.5208 1072.95Z" transform="matrix(-1 1.22465e-16 1.22465e-16 1 1344.58 1364)"/><path d="M4648.78 1358.84 4897.18 1358.84 4897.18 2457.58 4653.36 2457.58 4653.36 2447.26 4892.02 2447.26 4886.87 2452.42 4886.87 1364 4892.02 1369.16 4648.78 1369.16ZM4653.94 1379.47 4623 1364 4653.94 1348.53ZM4658.52 2467.89 4627.58 2452.42 4658.52 2436.95Z"/><path d="M1729 2447.84 1845.08 2447.84 1845.08 2458.16 1729 2458.16ZM1839.93 2437.53 1870.87 2453 1839.93 2468.47Z"/><path d="M1.3117e-05-5.15625 116.084-5.15595 116.084 5.15655-1.3117e-05 5.15625ZM110.928-15.4685 141.865 0.000360892 110.928 15.469Z" transform="matrix(-1 0 0 1 4233.87 2453)"/><path d="M22.9168-3.4375 50.4168-3.4375 50.4168 3.4375 22.9168 3.4375ZM71.0418-3.4375 77.9168-3.4375 77.9168 3.4375 71.0418 3.4375ZM98.5418-3.4375 126.042-3.4375 126.042 3.4375 98.5418 3.4375ZM146.667-3.4375 153.542-3.4375 153.542 3.4375 146.667 3.4375ZM174.167-3.4375 201.667-3.4375 201.667 3.4375 174.167 3.4375ZM222.292-3.4375 229.167-3.4375 229.167 3.4375 222.292 3.4375ZM249.792-3.4375 277.292-3.4375 277.292 3.4375 249.792 3.4375ZM297.917-3.4375 304.792-3.4375 304.792 3.4375 297.917 3.4375ZM325.417-3.4375 352.917-3.4375 352.917 3.4375 325.417 3.4375ZM373.542-3.4375 380.417-3.4375 380.417 3.4375 373.542 3.4375ZM401.042-3.4375 411.699-3.4375 411.699 20.2805 404.824 20.2805 404.824 0 408.261 3.4375 401.042 3.4375ZM411.699 40.9055 411.699 47.7805 404.824 47.7805 404.824 40.9055ZM411.699 68.4055 411.699 95.9055 404.824 95.9055 404.824 68.4055ZM411.699 116.53 411.699 123.405 404.824 123.405 404.824 116.53ZM411.699 144.03 411.699 171.53 404.824 171.53 404.824 144.03ZM411.699 192.155 411.699 199.03 404.824 199.03 404.824 192.155ZM411.699 219.655 411.699 247.155 404.824 247.155 404.824 219.655ZM411.699 267.78 411.699 274.655 404.824 274.655 404.824 267.78ZM411.699 295.28 411.699 322.78 404.824 322.78 404.824 295.28ZM411.699 343.405 411.699 350.28 404.824 350.28 404.824 343.405ZM411.699 370.905 411.699 398.405 404.824 398.405 404.824 370.905ZM411.699 419.03 411.699 425.905 404.824 425.905 404.824 419.03ZM411.699 446.53 411.699 474.03 404.824 474.03 404.824 446.53ZM411.699 494.655 411.699 501.53 404.824 501.53 404.824 494.655ZM411.699 522.155 411.699 549.655 404.824 549.655 404.824 522.155ZM411.699 570.28 411.699 577.155 404.824 577.155 404.824 570.28ZM411.699 597.78 411.699 625.28 404.824 625.28 404.824 597.78ZM411.699 645.905 411.699 652.78 404.824 652.78 404.824 645.905ZM411.699 673.405 411.699 700.905 404.824 700.905 404.824 673.405ZM411.699 721.53 411.699 728.405 404.824 728.405 404.824 721.53ZM411.699 749.03 411.699 776.531 404.824 776.531 404.824 749.03ZM411.699 797.156 411.699 804.031 404.824 804.031 404.824 797.156ZM411.699 824.656 411.699 852.156 404.824 852.156 404.824 824.656ZM411.699 872.781 411.699 879.656 404.824 879.656 404.824 872.781ZM411.699 900.281 411.699 927.781 404.824 927.781 404.824 900.281ZM411.699 948.406 411.699 955.281 404.824 955.281 404.824 948.406ZM411.699 975.906 411.699 1003.41 404.824 1003.41 404.824 975.906ZM411.699 1024.03 411.699 1030.91 404.824 1030.91 404.824 1024.03ZM411.699 1051.53 411.699 1079.03 404.824 1079.03 404.824 1051.53ZM411.699 1099.66 411.699 1106.53 404.824 1106.53 404.824 1099.66ZM411.699 1127.16 411.699 1154.66 404.824 1154.66 404.824 1127.16ZM411.699 1175.28 411.699 1182.16 404.824 1182.16 404.824 1175.28ZM411.699 1202.78 411.699 1230.28 404.824 1230.28 404.824 1202.78ZM411.699 1250.91 411.699 1257.78 404.824 1257.78 404.824 1250.91ZM411.699 1278.41 411.699 1305.91 404.824 1305.91 404.824 1278.41ZM411.699 1326.53 411.699 1333.41 404.824 1333.41 404.824 1326.53ZM411.699 1354.03 411.699 1381.53 404.824 1381.53 404.824 1354.03ZM411.699 1402.16 411.699 1409.03 404.824 1409.03 404.824 1402.16ZM411.699 1429.66 411.699 1457.16 404.824 1457.16 404.824 1429.66ZM411.699 1477.78 411.699 1484.66 404.824 1484.66 404.824 1477.78ZM411.699 1505.28 411.699 1532.78 404.824 1532.78 404.824 1505.28ZM391.69 1540.27 384.815 1540.27 384.815 1533.4 391.69 1533.4ZM364.19 1540.27 336.69 1540.27 336.69 1533.4 364.19 1533.4ZM316.065 1540.27 309.19 1540.27 309.19 1533.4 316.065 1533.4ZM288.565 1540.27 261.065 1540.27 261.065 1533.4 288.565 1533.4ZM240.44 1540.27 233.565 1540.27 233.565 1533.4 240.44 1533.4ZM212.94 1540.27 185.44 1540.27 185.44 1533.4 212.94 1533.4ZM164.815 1540.27 157.94 1540.27 157.94 1533.4 164.815 1533.4ZM137.315 1540.27 109.815 1540.27 109.815 1533.4 137.315 1533.4ZM89.1904 1540.27 82.3154 1540.27 82.3154 1533.4 89.1904 1533.4ZM61.6904 1540.27 34.1904 1540.27 34.1904 1533.4 61.6904 1533.4ZM27.5 13.75 0 0 27.5-13.75ZM29.2197 1550.58 1.71965 1536.83 29.2197 1523.08Z" transform="matrix(-1 1.22465e-16 1.22465e-16 1 1341.22 1041.5)"/><path d="M4646.42 1038.06 4673.92 1038.06 4673.92 1044.94 4646.42 1044.94ZM4694.54 1038.06 4701.42 1038.06 4701.42 1044.94 4694.54 1044.94ZM4722.04 1038.06 4749.54 1038.06 4749.54 1044.94 4722.04 1044.94ZM4770.17 1038.06 4777.04 1038.06 4777.04 1044.94 4770.17 1044.94ZM4797.67 1038.06 4825.17 1038.06 4825.17 1044.94 4797.67 1044.94ZM4845.79 1038.06 4852.67 1038.06 4852.67 1044.94 4845.79 1044.94ZM4873.29 1038.06 4900.79 1038.06 4900.79 1044.94 4873.29 1044.94ZM4921.42 1038.06 4928.29 1038.06 4928.29 1044.94 4921.42 1044.94ZM4948.92 1038.06 4976.42 1038.06 4976.42 1044.94 4948.92 1044.94ZM4997.04 1038.06 5003.92 1038.06 5003.92 1044.94 4997.04 1044.94ZM5022.94 1046.54 5022.94 1074.04 5016.06 1074.04 5016.06 1046.54ZM5022.94 1094.67 5022.94 1101.54 5016.06 1101.54 5016.06 1094.67ZM5022.94 1122.17 5022.94 1149.67 5016.06 1149.67 5016.06 1122.17ZM5022.94 1170.29 5022.94 1177.17 5016.06 1177.17 5016.06 1170.29ZM5022.94 1197.79 5022.94 1225.29 5016.06 1225.29 5016.06 1197.79ZM5022.94 1245.92 5022.94 1252.79 5016.06 1252.79 5016.06 1245.92ZM5022.94 1273.42 5022.94 1300.92 5016.06 1300.92 5016.06 1273.42ZM5022.94 1321.54 5022.94 1328.42 5016.06 1328.42 5016.06 1321.54ZM5022.94 1349.04 5022.94 1376.54 5016.06 1376.54 5016.06 1349.04ZM5022.94 1397.17 5022.94 1404.04 5016.06 1404.04 5016.06 1397.17ZM5022.94 1424.67 5022.94 1452.17 5016.06 1452.17 5016.06 1424.67ZM5022.94 1472.79 5022.94 1479.67 5016.06 1479.67 5016.06 1472.79ZM5022.94 1500.29 5022.94 1527.79 5016.06 1527.79 5016.06 1500.29ZM5022.94 1548.42 5022.94 1555.29 5016.06 1555.29 5016.06 1548.42ZM5022.94 1575.92 5022.94 1603.42 5016.06 1603.42 5016.06 1575.92ZM5022.94 1624.04 5022.94 1630.92 5016.06 1630.92 5016.06 1624.04ZM5022.94 1651.54 5022.94 1679.04 5016.06 1679.04 5016.06 1651.54ZM5022.94 1699.67 5022.94 1706.54 5016.06 1706.54 5016.06 1699.67ZM5022.94 1727.17 5022.94 1754.67 5016.06 1754.67 5016.06 1727.17ZM5022.94 1775.29 5022.94 1782.17 5016.06 1782.17 5016.06 1775.29ZM5022.94 1802.79 5022.94 1830.29 5016.06 1830.29 5016.06 1802.79ZM5022.94 1850.92 5022.94 1857.79 5016.06 1857.79 5016.06 1850.92ZM5022.94 1878.42 5022.94 1905.92 5016.06 1905.92 5016.06 1878.42ZM5022.94 1926.54 5022.94 1933.42 5016.06 1933.42 5016.06 1926.54ZM5022.94 1954.04 5022.94 1981.54 5016.06 1981.54 5016.06 1954.04ZM5022.94 2002.17 5022.94 2009.04 5016.06 2009.04 5016.06 2002.17ZM5022.94 2029.67 5022.94 2057.17 5016.06 2057.17 5016.06 2029.67ZM5022.94 2077.79 5022.94 2084.67 5016.06 2084.67 5016.06 2077.79ZM5022.94 2105.29 5022.94 2132.79 5016.06 2132.79 5016.06 2105.29ZM5022.94 2153.42 5022.94 2160.29 5016.06 2160.29 5016.06 2153.42ZM5022.94 2180.92 5022.94 2208.42 5016.06 2208.42 5016.06 2180.92ZM5022.94 2229.04 5022.94 2235.92 5016.06 2235.92 5016.06 2229.04ZM5022.94 2256.54 5022.94 2284.04 5016.06 2284.04 5016.06 2256.54ZM5022.94 2304.67 5022.94 2311.54 5016.06 2311.54 5016.06 2304.67ZM5022.94 2332.17 5022.94 2359.67 5016.06 2359.67 5016.06 2332.17ZM5022.94 2380.29 5022.94 2387.17 5016.06 2387.17 5016.06 2380.29ZM5022.94 2407.79 5022.94 2435.29 5016.06 2435.29 5016.06 2407.79ZM5022.94 2455.92 5022.94 2462.79 5016.06 2462.79 5016.06 2455.92ZM5022.94 2483.42 5022.94 2510.92 5016.06 2510.92 5016.06 2483.42ZM5022.94 2531.54 5022.94 2538.42 5016.06 2538.42 5016.06 2531.54ZM5022.94 2559.04 5022.94 2581.77 5011.29 2581.77 5011.29 2574.9 5019.5 2574.9 5016.06 2578.33 5016.06 2559.04ZM4990.67 2581.77 4983.79 2581.77 4983.79 2574.9 4990.67 2574.9ZM4963.17 2581.77 4935.67 2581.77 4935.67 2574.9 4963.17 2574.9ZM4915.04 2581.77 4908.17 2581.77 4908.17 2574.9 4915.04 2574.9ZM4887.54 2581.77 4860.04 2581.77 4860.04 2574.9 4887.54 2574.9ZM4839.42 2581.77 4832.54 2581.77 4832.54 2574.9 4839.42 2574.9ZM4811.92 2581.77 4784.42 2581.77 4784.42 2574.9 4811.92 2574.9ZM4763.79 2581.77 4756.92 2581.77 4756.92 2574.9 4763.79 2574.9ZM4736.29 2581.77 4708.79 2581.77 4708.79 2574.9 4736.29 2574.9ZM4688.17 2581.77 4681.29 2581.77 4681.29 2574.9 4688.17 2574.9ZM4660.67 2581.77 4651 2581.77 4651 2574.9 4660.67 2574.9ZM4651 1055.25 4623.5 1041.5 4651 1027.75ZM4655.58 2592.08 4628.08 2578.33 4655.58 2564.58Z"/><path d="M1728.5 2575.06 1756 2575.06 1756 2581.94 1728.5 2581.94ZM1776.62 2575.06 1783.5 2575.06 1783.5 2581.94 1776.62 2581.94ZM1804.12 2575.06 1831.62 2575.06 1831.62 2581.94 1804.12 2581.94ZM1843.73 2564.75 1871.23 2578.5 1843.73 2592.25Z"/><path d="M8.68564e-06-3.4375 27.5-3.43743 27.5 3.43757-8.68564e-06 3.4375ZM48.125-3.43738 55-3.43736 55 3.43764 48.125 3.43762ZM75.625-3.43731 103.125-3.43724 103.125 3.43776 75.625 3.43769ZM115.33-13.7497 142.83 0.000360892 115.33 13.7503Z" transform="matrix(-1 0 0 1 4235.33 2578.5)"/><path d="M749.5 1200.5C749.5 1169.02 777.034 1143.5 811 1143.5 844.965 1143.5 872.5 1169.02 872.5 1200.5 872.5 1231.98 844.965 1257.5 811 1257.5 777.034 1257.5 749.5 1231.98 749.5 1200.5Z" stroke="#000000" stroke-width="6.875" stroke-miterlimit="8" fill-rule="evenodd"/><text fill="#FFFFFF" font-family="Gill Sans MT,Gill Sans MT_MSFontService,sans-serif" font-weight="400" font-size="92" transform="matrix(1 0 0 1 787.955 1233)">3</text><path d="M5079.5 2446.5C5079.5 2415.02 5107.03 2389.5 5141 2389.5 5174.97 2389.5 5202.5 2415.02 5202.5 2446.5 5202.5 2477.98 5174.97 2503.5 5141 2503.5 5107.03 2503.5 5079.5 2477.98 5079.5 2446.5Z" stroke="#000000" stroke-width="6.875" stroke-miterlimit="8" fill-rule="evenodd"/><text fill="#FFFFFF" font-family="Gill Sans MT,Gill Sans MT_MSFontService,sans-serif" font-weight="400" font-size="92" transform="matrix(1 0 0 1 5117.71 2479)">4</text><text font-family="Aptos,Aptos_MSFontService,sans-serif" font-weight="700" font-size="83" transform="matrix(1 0 0 1 152.318 1086)">OUTGOING: </text><text font-family="Aptos,Aptos_MSFontService,sans-serif" font-weight="700" font-size="83" transform="matrix(1 0 0 1 44.9768 1185)">Command &amp; Data</text><text font-family="Aptos,Aptos_MSFontService,sans-serif" font-style="italic" font-weight="400" font-size="83" transform="matrix(1 0 0 1 99.633 1284)">REMOTE</text><text font-family="Aptos,Aptos_MSFontService,sans-serif" font-style="italic" font-weight="400" font-size="83" transform="matrix(1 0 0 1 419.664 1284)">WRITE</text><text font-family="Aptos,Aptos_MSFontService,sans-serif" font-weight="400" font-size="83" transform="matrix(1 0 0 1 71.6747 1383)">d</text><text font-family="Aptos,Aptos_MSFontService,sans-serif" font-weight="400" font-size="83" transform="matrix(1 0 0 1 118.081 1383)">ata</text><text font-family="Aptos,Aptos_MSFontService,sans-serif" font-weight="400" font-size="83" transform="matrix(1 0 0 1 248.798 1383)">=</text><text font-family="Aptos,Aptos_MSFontService,sans-serif" font-weight="400" font-size="83" transform="matrix(1 0 0 1 309.527 1383)">{1, 2, 3, …}</text><text font-family="Aptos,Aptos_MSFontService,sans-serif" font-weight="700" font-size="83" transform="matrix(1 0 0 1 5349.53 2322)">INCOMING: </text><text font-family="Aptos,Aptos_MSFontService,sans-serif" font-weight="700" font-size="83" transform="matrix(1 0 0 1 5238.37 2421)">Command &amp; Data</text><text font-family="Aptos,Aptos_MSFontService,sans-serif" font-style="italic" font-weight="400" font-size="83" transform="matrix(1 0 0 1 5322.36 2520)">LOCAL WRITE</text><text font-family="Aptos,Aptos_MSFontService,sans-serif" font-weight="400" font-size="83" transform="matrix(1 0 0 1 5265.06 2619)">d</text><text font-family="Aptos,Aptos_MSFontService,sans-serif" font-weight="400" font-size="83" transform="matrix(1 0 0 1 5311.47 2619)">ata</text><text font-family="Aptos,Aptos_MSFontService,sans-serif" font-weight="400" font-size="83" transform="matrix(1 0 0 1 5442.19 2619)">=</text><text font-family="Aptos,Aptos_MSFontService,sans-serif" font-weight="400" font-size="83" transform="matrix(1 0 0 1 5502.92 2619)">{1, 2, 3, …}</text><path d="M771.5 2454.5C771.5 2423.02 799.034 2397.5 833 2397.5 866.965 2397.5 894.5 2423.02 894.5 2454.5 894.5 2485.98 866.965 2511.5 833 2511.5 799.034 2511.5 771.5 2485.98 771.5 2454.5Z" stroke="#000000" stroke-width="6.875" stroke-miterlimit="8" fill-rule="evenodd"/><text fill="#FFFFFF" font-family="Gill Sans MT,Gill Sans MT_MSFontService,sans-serif" font-weight="400" font-size="92" transform="matrix(1 0 0 1 809.468 2487)">5</text><text font-family="Aptos,Aptos_MSFontService,sans-serif" font-weight="700" font-size="83" transform="matrix(1 0 0 1 248.403 2439)">INCOMING: </text><text font-family="Aptos,Aptos_MSFontService,sans-serif" font-weight="700" font-size="83" transform="matrix(1 0 0 1 244.759 2538)">Completion</text><path d="M2452.98 2125.74 2878.67 2125.74 2878.67 2268.74 2452.98 2268.74Z" fill="#00B0F0" fill-rule="evenodd"/><path d="M2878.67 2125.74 3496.63 2125.74 3496.63 2268.74 2878.67 2268.74Z" fill="#FFC000" fill-rule="evenodd"/><path d="M2878.67 2123.45 2878.67 2271.03" stroke="#000000" stroke-width="4.58333" stroke-linejoin="round" stroke-miterlimit="10" fill="none" fill-rule="evenodd"/><path d="M2452.98 2123.45 2452.98 2271.03" stroke="#000000" stroke-width="4.58333" stroke-linejoin="round" stroke-miterlimit="10" fill="none" fill-rule="evenodd"/><path d="M3496.63 2123.45 3496.63 2271.03" stroke="#000000" stroke-width="4.58333" stroke-linejoin="round" stroke-miterlimit="10" fill="none" fill-rule="evenodd"/><path d="M2450.69 2125.74 3498.92 2125.74" stroke="#000000" stroke-width="4.58333" stroke-linejoin="round" stroke-miterlimit="10" fill="none" fill-rule="evenodd"/><path d="M2450.69 2268.74 3498.92 2268.74" stroke="#000000" stroke-width="4.58333" stroke-linejoin="round" stroke-miterlimit="10" fill="none" fill-rule="evenodd"/><text fill="#FFFFFF" font-family="Gill Sans MT,Gill Sans MT_MSFontService,sans-serif" font-weight="700" font-size="92" transform="matrix(1 0 0 1 3083.66 2230)">Data</text><g><text fill="#FFFFFF" font-family="Gill Sans MT,Gill Sans MT_MSFontService,sans-serif" font-weight="700" font-size="92" transform="matrix(1 0 0 1 2505.69 2230)">Header</text></g><path d="M3327.19 2084C3327.19 1973.1 3419.78 1883.19 3534 1883.19 3621.1 1883.19 3698.87 1936.19 3728.48 2015.72L3755.36 2014.98 3727.54 2078.68 3673.64 2017.23 3700.38 2016.5C3661.81 1927.66 3556.06 1885.87 3464.17 1923.15 3397.16 1950.34 3353.56 2013.74 3353.56 2084Z" stroke="#042433" stroke-width="6.875" stroke-miterlimit="8" fill="#E8E8E8" fill-rule="evenodd"/><path d="M27.6943 228.5C27.6943 117.598 120.284 27.6943 234.5 27.6943 321.603 27.6943 399.368 80.6866 428.984 160.223L455.864 159.484 428.044 223.18 374.137 161.73 400.878 160.995C362.314 72.1625 256.562 30.3723 164.673 67.6541 97.662 94.8426 54.0632 158.243 54.0632 228.5Z" stroke="#042433" stroke-width="6.875" stroke-miterlimit="8" fill="#E8E8E8" fill-rule="evenodd" transform="matrix(-1 0 0 1 2660.5 1855.5)"/></g></svg>